# xmcd CD database file
#
# Track frame offsets:
#	150
#	14762
#	30506
#	41415
#	54236
#	73373
#	85408
#	101695
#	118307
#	139786
#	161412
#	178998
#	193625
#	205216
#	217124
#	239829
#	251090
#	263357
#	283017
#	298824
#	310526
#	322399
#	342338
#
# Disc length: 4781 seconds
#
# Revision: 0
# Processed by: cddbd v1.5.1PL0 Copyright (c) Steve Scherf et al.
# Submitted via: CDex 1.50beta9
#
DISCID=7212ab17
DTITLE=Townes Van Zandt - Compilation #1 (from mp3)
DYEAR=1900
DGENRE=Country
TTITLE0=Townes Van Zandt - Black Jack Mama
TTITLE1=Townes Van Zandt - Big Country Blues
TTITLE2=Townes Van Zandt - Black Widow Blues
TTITLE3=Townes Van Zandt - Colorado Bound
TTITLE4=Townes Van Zandt - Waitin For The Day
TTITLE5=Townes Van Zandt - Blue Wind Blew
TTITLE6=Townes Van Zandt - Cowboy Junkies Lament
TTITLE7=Townes Van Zandt - Pancho and Lefty (studio)
TTITLE8=Townes Van Zandt - For The Sake Of The Song
TTITLE9=Townes Van Zandt - Dead Flowers
TTITLE10=Townes Van Zandt - If I Needed You
TTITLE11=Townes Van Zandt - Katie Belle Blue
TTITLE12=Townes Van Zandt - Lonesome Whistle
TTITLE13=Townes Van Zandt - Lost Highway
TTITLE14=Townes Van Zandt - Marie
TTITLE15=Townes Van Zandt - Texas River Song
TTITLE16=Townes Van Zandt - Indian Cowboy
TTITLE17=Townes Van Zandt - No Lonesome Tune
TTITLE18=Townes Van Zandt - If I Needed You (w E Harris)
TTITLE19=Townes Van Zandt - Snake Song
TTITLE20=Townes Van Zandt - Still Lookin' For You
TTITLE21=Townes Van Zandt - The Catfish Song
TTITLE22=Townes Van Zandt - Wreck On The Highway
EXTD=
EXTT0=
EXTT1=
EXTT2=
EXTT3=
EXTT4=
EXTT5=
EXTT6=
EXTT7=
EXTT8=
EXTT9=
EXTT10=
EXTT11=
EXTT12=
EXTT13=
EXTT14=
EXTT15=
EXTT16=
EXTT17=
EXTT18=
EXTT19=
EXTT20=
EXTT21=
EXTT22=
PLAYORDER=
